<?xml version="1.0" encoding="UTF-8" standalone="no"?>
<!DOCTYPE svg PUBLIC "-//W3C//DTD SVG 1.1//EN"
 "http://www.w3.org/Graphics/SVG/1.1/DTD/svg11.dtd">
<!-- Generated by graphviz version 2.43.0 (0)
 -->
<!-- Title: MONA_DFA Pages: 1 -->
<svg width="396pt" height="444pt"
 viewBox="0.00 0.00 396.00 444.26" xmlns="http://www.w3.org/2000/svg" xmlns:xlink="http://www.w3.org/1999/xlink">
<g id="graph0" class="graph" transform="scale(1 1) rotate(0) translate(4 440.26)">
<title>MONA_DFA</title>
<polygon fill="white" stroke="transparent" points="-4,4 -4,-440.26 392,-440.26 392,4 -4,4"/>
<!-- 0 -->
<g id="node1" class="node">
<title>0</title>
<ellipse fill="none" stroke="black" cx="95.5" cy="-165.26" rx="18" ry="18"/>
<ellipse fill="none" stroke="black" cx="95.5" cy="-165.26" rx="22" ry="22"/>
<text text-anchor="middle" x="95.5" y="-161.56" font-family="Times,serif" font-size="14.00">0</text>
</g>
<!-- 0&#45;&gt;0 -->
<g id="edge2" class="edge">
<title>0&#45;&gt;0</title>
<path fill="none" stroke="black" d="M88.18,-186.25C87.28,-196.35 89.72,-205.26 95.5,-205.26 99.2,-205.26 101.54,-201.6 102.5,-196.32"/>
<polygon fill="black" stroke="black" points="106,-196.36 102.82,-186.25 99,-196.13 106,-196.36"/>
<text text-anchor="middle" x="95.5" y="-239.06" font-family="Courier,monospace" font-size="14.00">0</text>
<text text-anchor="middle" x="95.5" y="-224.06" font-family="Courier,monospace" font-size="14.00">0</text>
<text text-anchor="middle" x="95.5" y="-209.06" font-family="Courier,monospace" font-size="14.00">1</text>
</g>
<!-- 2 -->
<g id="node2" class="node">
<title>2</title>
<ellipse fill="none" stroke="black" cx="275.5" cy="-145.26" rx="18" ry="18"/>
<ellipse fill="none" stroke="black" cx="275.5" cy="-145.26" rx="22" ry="22"/>
<text text-anchor="middle" x="275.5" y="-141.56" font-family="Times,serif" font-size="14.00">2</text>
</g>
<!-- 0&#45;&gt;2 -->
<g id="edge4" class="edge">
<title>0&#45;&gt;2</title>
<path fill="none" stroke="black" d="M117.62,-162.89C148.8,-159.38 207.34,-152.8 243.43,-148.75"/>
<polygon fill="black" stroke="black" points="243.86,-152.22 253.41,-147.63 243.08,-145.27 243.86,-152.22"/>
<text text-anchor="middle" x="185.5" y="-192.06" font-family="Courier,monospace" font-size="14.00">0</text>
<text text-anchor="middle" x="185.5" y="-177.06" font-family="Courier,monospace" font-size="14.00">1</text>
<text text-anchor="middle" x="185.5" y="-162.06" font-family="Courier,monospace" font-size="14.00">0</text>
</g>
<!-- 3 -->
<g id="node3" class="node">
<title>3</title>
<ellipse fill="none" stroke="black" cx="185.5" cy="-250.26" rx="18" ry="18"/>
<ellipse fill="none" stroke="black" cx="185.5" cy="-250.26" rx="22" ry="22"/>
<text text-anchor="middle" x="185.5" y="-246.56" font-family="Times,serif" font-size="14.00">3</text>
</g>
<!-- 0&#45;&gt;3 -->
<g id="edge5" class="edge">
<title>0&#45;&gt;3</title>
<path fill="none" stroke="black" d="M111.83,-180.06C125.62,-193.39 146.08,-213.15 161.78,-228.31"/>
<polygon fill="black" stroke="black" points="159.43,-230.91 169.05,-235.34 164.29,-225.87 159.43,-230.91"/>
<text text-anchor="middle" x="140.5" y="-244.06" font-family="Courier,monospace" font-size="14.00">0</text>
<text text-anchor="middle" x="140.5" y="-229.06" font-family="Courier,monospace" font-size="14.00">1</text>
<text text-anchor="middle" x="140.5" y="-214.06" font-family="Courier,monospace" font-size="14.00">1</text>
</g>
<!-- 5 -->
<g id="node4" class="node">
<title>5</title>
<ellipse fill="none" stroke="black" cx="275.5" cy="-351.26" rx="18" ry="18"/>
<ellipse fill="none" stroke="black" cx="275.5" cy="-351.26" rx="22" ry="22"/>
<text text-anchor="middle" x="275.5" y="-347.56" font-family="Times,serif" font-size="14.00">5</text>
</g>
<!-- 0&#45;&gt;5 -->
<g id="edge7" class="edge">
<title>0&#45;&gt;5</title>
<path fill="none" stroke="black" d="M97.67,-187.32C100.99,-225.89 113.79,-305.21 163,-344.26 185.6,-362.19 219.58,-361.65 244.09,-358.04"/>
<polygon fill="black" stroke="black" points="244.68,-361.49 253.95,-356.36 243.5,-354.59 244.68,-361.49"/>
<text text-anchor="middle" x="185.5" y="-393.06" font-family="Courier,monospace" font-size="14.00">1</text>
<text text-anchor="middle" x="185.5" y="-378.06" font-family="Courier,monospace" font-size="14.00">X</text>
<text text-anchor="middle" x="185.5" y="-363.06" font-family="Courier,monospace" font-size="14.00">1</text>
</g>
<!-- 1 -->
<g id="node5" class="node">
<title>1</title>
<ellipse fill="none" stroke="black" cx="185.5" cy="-48.26" rx="18" ry="18"/>
<text text-anchor="middle" x="185.5" y="-44.56" font-family="Times,serif" font-size="14.00">1</text>
</g>
<!-- 0&#45;&gt;1 -->
<g id="edge3" class="edge">
<title>0&#45;&gt;1</title>
<path fill="none" stroke="black" d="M107.94,-147.1C115.58,-135.25 126.02,-119.57 136,-106.26 145.54,-93.54 156.91,-79.87 166.24,-69"/>
<polygon fill="black" stroke="black" points="169.01,-71.14 172.91,-61.29 163.72,-66.56 169.01,-71.14"/>
<text text-anchor="middle" x="140.5" y="-140.06" font-family="Courier,monospace" font-size="14.00">0</text>
<text text-anchor="middle" x="140.5" y="-125.06" font-family="Courier,monospace" font-size="14.00">0</text>
<text text-anchor="middle" x="140.5" y="-110.06" font-family="Courier,monospace" font-size="14.00">0</text>
</g>
<!-- 4 -->
<g id="node6" class="node">
<title>4</title>
<ellipse fill="none" stroke="black" cx="365.5" cy="-145.26" rx="18" ry="18"/>
<text text-anchor="middle" x="365.5" y="-141.56" font-family="Times,serif" font-size="14.00">4</text>
</g>
<!-- 0&#45;&gt;4 -->
<g id="edge6" class="edge">
<title>0&#45;&gt;4</title>
<path fill="none" stroke="black" d="M100.71,-143.65C107.95,-112.24 125.72,-54.14 163,-21.26 185.03,-1.83 196.97,-5.76 226,-1.26 291.01,8.81 335.71,-75.07 354.51,-119.23"/>
<polygon fill="black" stroke="black" points="351.29,-120.59 358.33,-128.51 357.76,-117.93 351.29,-120.59"/>
<text text-anchor="middle" x="230.5" y="-35.06" font-family="Courier,monospace" font-size="14.00">1</text>
<text text-anchor="middle" x="230.5" y="-20.06" font-family="Courier,monospace" font-size="14.00">X</text>
<text text-anchor="middle" x="230.5" y="-5.06" font-family="Courier,monospace" font-size="14.00">0</text>
</g>
<!-- 2&#45;&gt;2 -->
<g id="edge11" class="edge">
<title>2&#45;&gt;2</title>
<path fill="none" stroke="black" d="M267.49,-165.84C266.39,-176.1 269.05,-185.26 275.5,-185.26 279.63,-185.26 282.21,-181.5 283.24,-176.1"/>
<polygon fill="black" stroke="black" points="286.74,-175.93 283.51,-165.84 279.75,-175.74 286.74,-175.93"/>
<text text-anchor="middle" x="275.5" y="-219.06" font-family="Courier,monospace" font-size="14.00">0</text>
<text text-anchor="middle" x="275.5" y="-204.06" font-family="Courier,monospace" font-size="14.00">X</text>
<text text-anchor="middle" x="275.5" y="-189.06" font-family="Courier,monospace" font-size="14.00">X</text>
</g>
<!-- 2&#45;&gt;4 -->
<g id="edge12" class="edge">
<title>2&#45;&gt;4</title>
<path fill="none" stroke="black" d="M297.8,-145.26C309.64,-145.26 324.51,-145.26 337.2,-145.26"/>
<polygon fill="black" stroke="black" points="337.23,-148.76 347.23,-145.26 337.23,-141.76 337.23,-148.76"/>
<text text-anchor="middle" x="320.5" y="-179.06" font-family="Courier,monospace" font-size="14.00">1</text>
<text text-anchor="middle" x="320.5" y="-164.06" font-family="Courier,monospace" font-size="14.00">X</text>
<text text-anchor="middle" x="320.5" y="-149.06" font-family="Courier,monospace" font-size="14.00">X</text>
</g>
<!-- 3&#45;&gt;2 -->
<g id="edge13" class="edge">
<title>3&#45;&gt;2</title>
<path fill="none" stroke="black" d="M200.25,-233.85C214.7,-216.62 237.57,-189.32 254.12,-169.58"/>
<polygon fill="black" stroke="black" points="256.82,-171.81 260.56,-161.9 251.45,-167.31 256.82,-171.81"/>
<text text-anchor="middle" x="230.5" y="-234.06" font-family="Courier,monospace" font-size="14.00">0</text>
<text text-anchor="middle" x="230.5" y="-219.06" font-family="Courier,monospace" font-size="14.00">X</text>
<text text-anchor="middle" x="230.5" y="-204.06" font-family="Courier,monospace" font-size="14.00">0</text>
</g>
<!-- 3&#45;&gt;3 -->
<g id="edge14" class="edge">
<title>3&#45;&gt;3</title>
<path fill="none" stroke="black" d="M177.49,-270.84C176.39,-281.1 179.05,-290.26 185.5,-290.26 189.63,-290.26 192.21,-286.5 193.24,-281.1"/>
<polygon fill="black" stroke="black" points="196.74,-280.93 193.51,-270.84 189.75,-280.74 196.74,-280.93"/>
<text text-anchor="middle" x="185.5" y="-324.06" font-family="Courier,monospace" font-size="14.00">0</text>
<text text-anchor="middle" x="185.5" y="-309.06" font-family="Courier,monospace" font-size="14.00">X</text>
<text text-anchor="middle" x="185.5" y="-294.06" font-family="Courier,monospace" font-size="14.00">1</text>
</g>
<!-- 3&#45;&gt;5 -->
<g id="edge16" class="edge">
<title>3&#45;&gt;5</title>
<path fill="none" stroke="black" d="M200.64,-266.49C215.01,-282.98 237.42,-308.7 253.79,-327.49"/>
<polygon fill="black" stroke="black" points="251.19,-329.83 260.4,-335.07 256.47,-325.23 251.19,-329.83"/>
<text text-anchor="middle" x="230.5" y="-337.06" font-family="Courier,monospace" font-size="14.00">1</text>
<text text-anchor="middle" x="230.5" y="-322.06" font-family="Courier,monospace" font-size="14.00">X</text>
<text text-anchor="middle" x="230.5" y="-307.06" font-family="Courier,monospace" font-size="14.00">1</text>
</g>
<!-- 3&#45;&gt;4 -->
<g id="edge15" class="edge">
<title>3&#45;&gt;4</title>
<path fill="none" stroke="black" d="M207.56,-253.41C231.37,-255.87 270.41,-256.41 298,-239.26 324.03,-223.08 342.73,-192.56 353.55,-170.69"/>
<polygon fill="black" stroke="black" points="356.73,-172.16 357.83,-161.62 350.4,-169.17 356.73,-172.16"/>
<text text-anchor="middle" x="275.5" y="-287.06" font-family="Courier,monospace" font-size="14.00">1</text>
<text text-anchor="middle" x="275.5" y="-272.06" font-family="Courier,monospace" font-size="14.00">X</text>
<text text-anchor="middle" x="275.5" y="-257.06" font-family="Courier,monospace" font-size="14.00">0</text>
</g>
<!-- 5&#45;&gt;5 -->
<g id="edge19" class="edge">
<title>5&#45;&gt;5</title>
<path fill="none" stroke="black" d="M267.49,-371.84C266.39,-382.1 269.05,-391.26 275.5,-391.26 279.63,-391.26 282.21,-387.5 283.24,-382.1"/>
<polygon fill="black" stroke="black" points="286.74,-381.93 283.51,-371.84 279.75,-381.74 286.74,-381.93"/>
<text text-anchor="middle" x="275.5" y="-425.06" font-family="Courier,monospace" font-size="14.00">X</text>
<text text-anchor="middle" x="275.5" y="-410.06" font-family="Courier,monospace" font-size="14.00">X</text>
<text text-anchor="middle" x="275.5" y="-395.06" font-family="Courier,monospace" font-size="14.00">1</text>
</g>
<!-- 5&#45;&gt;4 -->
<g id="edge18" class="edge">
<title>5&#45;&gt;4</title>
<path fill="none" stroke="black" d="M290.07,-334.67C300.82,-320.84 315.55,-300.23 325,-280.26 341.76,-244.83 353.03,-200.76 359.11,-172.81"/>
<polygon fill="black" stroke="black" points="362.55,-173.45 361.18,-162.94 355.7,-172.01 362.55,-173.45"/>
<text text-anchor="middle" x="320.5" y="-330.06" font-family="Courier,monospace" font-size="14.00">X</text>
<text text-anchor="middle" x="320.5" y="-315.06" font-family="Courier,monospace" font-size="14.00">X</text>
<text text-anchor="middle" x="320.5" y="-300.06" font-family="Courier,monospace" font-size="14.00">0</text>
</g>
<!-- 1&#45;&gt;2 -->
<g id="edge9" class="edge">
<title>1&#45;&gt;2</title>
<path fill="none" stroke="black" d="M198.37,-61.34C212.33,-76.73 235.77,-102.56 252.96,-121.51"/>
<polygon fill="black" stroke="black" points="250.59,-124.11 259.9,-129.16 255.77,-119.41 250.59,-124.11"/>
<text text-anchor="middle" x="230.5" y="-134.06" font-family="Courier,monospace" font-size="14.00">0</text>
<text text-anchor="middle" x="230.5" y="-119.06" font-family="Courier,monospace" font-size="14.00">1</text>
<text text-anchor="middle" x="230.5" y="-104.06" font-family="Courier,monospace" font-size="14.00">X</text>
</g>
<!-- 1&#45;&gt;1 -->
<g id="edge8" class="edge">
<title>1&#45;&gt;1</title>
<path fill="none" stroke="black" d="M177.83,-64.55C175.98,-74.65 178.54,-84.26 185.5,-84.26 189.96,-84.26 192.61,-80.31 193.45,-74.82"/>
<polygon fill="black" stroke="black" points="196.95,-74.45 193.17,-64.55 189.95,-74.64 196.95,-74.45"/>
<text text-anchor="middle" x="185.5" y="-118.06" font-family="Courier,monospace" font-size="14.00">0</text>
<text text-anchor="middle" x="185.5" y="-103.06" font-family="Courier,monospace" font-size="14.00">0</text>
<text text-anchor="middle" x="185.5" y="-88.06" font-family="Courier,monospace" font-size="14.00">X</text>
</g>
<!-- 1&#45;&gt;4 -->
<g id="edge10" class="edge">
<title>1&#45;&gt;4</title>
<path fill="none" stroke="black" d="M203.54,-48.09C226.49,-48.58 267.9,-52.06 298,-69.26 319.91,-81.78 338.2,-104.24 350.02,-121.51"/>
<polygon fill="black" stroke="black" points="347.17,-123.55 355.59,-129.99 353.02,-119.71 347.17,-123.55"/>
<text text-anchor="middle" x="275.5" y="-103.06" font-family="Courier,monospace" font-size="14.00">1</text>
<text text-anchor="middle" x="275.5" y="-88.06" font-family="Courier,monospace" font-size="14.00">X</text>
<text text-anchor="middle" x="275.5" y="-73.06" font-family="Courier,monospace" font-size="14.00">X</text>
</g>
<!-- 4&#45;&gt;4 -->
<g id="edge17" class="edge">
<title>4&#45;&gt;4</title>
<path fill="none" stroke="black" d="M357.83,-161.55C355.98,-171.65 358.54,-181.26 365.5,-181.26 369.96,-181.26 372.61,-177.31 373.45,-171.82"/>
<polygon fill="black" stroke="black" points="376.95,-171.45 373.17,-161.55 369.95,-171.64 376.95,-171.45"/>
<text text-anchor="middle" x="365.5" y="-215.06" font-family="Courier,monospace" font-size="14.00">X</text>
<text text-anchor="middle" x="365.5" y="-200.06" font-family="Courier,monospace" font-size="14.00">X</text>
<text text-anchor="middle" x="365.5" y="-185.06" font-family="Courier,monospace" font-size="14.00">X</text>
</g>
<!-- init -->
<g id="node7" class="node">
<title>init</title>
</g>
<!-- init&#45;&gt;0 -->
<g id="edge1" class="edge">
<title>init&#45;&gt;0</title>
<path fill="none" stroke="black" d="M36.13,-165.26C44.16,-165.26 53.99,-165.26 63.27,-165.26"/>
<polygon fill="black" stroke="black" points="63.39,-168.76 73.39,-165.26 63.39,-161.76 63.39,-168.76"/>
</g>
</g>
</svg>
