<?xml version="1.0" encoding="UTF-8" standalone="no"?>
<!DOCTYPE svg PUBLIC "-//W3C//DTD SVG 1.1//EN"
 "http://www.w3.org/Graphics/SVG/1.1/DTD/svg11.dtd">
<!-- Generated by graphviz version 2.43.0 (0)
 -->
<!-- Title: MONA_DFA Pages: 1 -->
<svg width="206pt" height="85pt"
 viewBox="0.00 0.00 206.00 85.00" xmlns="http://www.w3.org/2000/svg" xmlns:xlink="http://www.w3.org/1999/xlink">
<g id="graph0" class="graph" transform="scale(1 1) rotate(0) translate(4 81)">
<title>MONA_DFA</title>
<polygon fill="white" stroke="transparent" points="-4,4 -4,-81 202,-81 202,4 -4,4"/>
<!-- 0 -->
<g id="node1" class="node">
<title>0</title>
<ellipse fill="none" stroke="black" cx="95" cy="-22" rx="18" ry="18"/>
<ellipse fill="none" stroke="black" cx="95" cy="-22" rx="22" ry="22"/>
<text text-anchor="middle" x="95" y="-18.3" font-family="Times,serif" font-size="14.00">0</text>
</g>
<!-- 0&#45;&gt;0 -->
<g id="edge2" class="edge">
<title>0&#45;&gt;0</title>
<path fill="none" stroke="black" d="M87.68,-42.99C86.78,-53.09 89.22,-62 95,-62 98.7,-62 101.04,-58.34 102,-53.06"/>
<polygon fill="black" stroke="black" points="105.5,-53.1 102.32,-42.99 98.5,-52.87 105.5,-53.1"/>
<text text-anchor="middle" x="95" y="-65.8" font-family="Courier,monospace" font-size="14.00">1</text>
</g>
<!-- 1 -->
<g id="node2" class="node">
<title>1</title>
<ellipse fill="none" stroke="black" cx="180" cy="-22" rx="18" ry="18"/>
<text text-anchor="middle" x="180" y="-18.3" font-family="Times,serif" font-size="14.00">1</text>
</g>
<!-- 0&#45;&gt;1 -->
<g id="edge3" class="edge">
<title>0&#45;&gt;1</title>
<path fill="none" stroke="black" d="M117.37,-22C127.86,-22 140.6,-22 151.77,-22"/>
<polygon fill="black" stroke="black" points="151.88,-25.5 161.88,-22 151.88,-18.5 151.88,-25.5"/>
<text text-anchor="middle" x="139.5" y="-25.8" font-family="Courier,monospace" font-size="14.00">0</text>
</g>
<!-- 1&#45;&gt;1 -->
<g id="edge4" class="edge">
<title>1&#45;&gt;1</title>
<path fill="none" stroke="black" d="M172.97,-38.66C171.41,-48.62 173.75,-58 180,-58 184,-58 186.4,-54.15 187.2,-48.77"/>
<polygon fill="black" stroke="black" points="190.7,-48.6 187.03,-38.66 183.7,-48.72 190.7,-48.6"/>
<text text-anchor="middle" x="180" y="-61.8" font-family="Courier,monospace" font-size="14.00">X</text>
</g>
<!-- init -->
<g id="node3" class="node">
<title>init</title>
</g>
<!-- init&#45;&gt;0 -->
<g id="edge1" class="edge">
<title>init&#45;&gt;0</title>
<path fill="none" stroke="black" d="M36.02,-22C43.85,-22 53.39,-22 62.46,-22"/>
<polygon fill="black" stroke="black" points="62.76,-25.5 72.76,-22 62.76,-18.5 62.76,-25.5"/>
</g>
</g>
</svg>
