<?xml version="1.0" encoding="UTF-8" standalone="no"?>
<!DOCTYPE svg PUBLIC "-//W3C//DTD SVG 1.1//EN"
 "http://www.w3.org/Graphics/SVG/1.1/DTD/svg11.dtd">
<!-- Generated by graphviz version 2.43.0 (0)
 -->
<!-- Title: MONA_DFA Pages: 1 -->
<svg width="206pt" height="85pt"
 viewBox="0.00 0.00 206.00 85.00" xmlns="http://www.w3.org/2000/svg" xmlns:xlink="http://www.w3.org/1999/xlink">
<g id="graph0" class="graph" transform="scale(1 1) rotate(0) translate(4 81)">
<title>MONA_DFA</title>
<polygon fill="white" stroke="transparent" points="-4,4 -4,-81 202,-81 202,4 -4,4"/>
<!-- 1 -->
<g id="node1" class="node">
<title>1</title>
<ellipse fill="none" stroke="black" cx="176" cy="-22" rx="18" ry="18"/>
<ellipse fill="none" stroke="black" cx="176" cy="-22" rx="22" ry="22"/>
<text text-anchor="middle" x="176" y="-18.3" font-family="Times,serif" font-size="14.00">1</text>
</g>
<!-- 1&#45;&gt;1 -->
<g id="edge4" class="edge">
<title>1&#45;&gt;1</title>
<path fill="none" stroke="black" d="M167.99,-42.58C166.89,-52.84 169.55,-62 176,-62 180.13,-62 182.71,-58.24 183.74,-52.84"/>
<polygon fill="black" stroke="black" points="187.24,-52.67 184.01,-42.58 180.25,-52.49 187.24,-52.67"/>
<text text-anchor="middle" x="176" y="-65.8" font-family="Courier,monospace" font-size="14.00">X</text>
</g>
<!-- 0 -->
<g id="node2" class="node">
<title>0</title>
<ellipse fill="none" stroke="black" cx="91" cy="-22" rx="18" ry="18"/>
<text text-anchor="middle" x="91" y="-18.3" font-family="Times,serif" font-size="14.00">0</text>
</g>
<!-- 0&#45;&gt;1 -->
<g id="edge3" class="edge">
<title>0&#45;&gt;1</title>
<path fill="none" stroke="black" d="M109.2,-22C119.16,-22 132,-22 143.7,-22"/>
<polygon fill="black" stroke="black" points="144,-25.5 154,-22 144,-18.5 144,-25.5"/>
<text text-anchor="middle" x="131.5" y="-25.8" font-family="Courier,monospace" font-size="14.00">1</text>
</g>
<!-- 0&#45;&gt;0 -->
<g id="edge2" class="edge">
<title>0&#45;&gt;0</title>
<path fill="none" stroke="black" d="M84.62,-39.04C83.32,-48.86 85.45,-58 91,-58 94.47,-58 96.6,-54.43 97.4,-49.35"/>
<polygon fill="black" stroke="black" points="100.9,-49.03 97.38,-39.04 93.9,-49.04 100.9,-49.03"/>
<text text-anchor="middle" x="91" y="-61.8" font-family="Courier,monospace" font-size="14.00">0</text>
</g>
<!-- init -->
<g id="node3" class="node">
<title>init</title>
</g>
<!-- init&#45;&gt;0 -->
<g id="edge1" class="edge">
<title>init&#45;&gt;0</title>
<path fill="none" stroke="black" d="M36.19,-22C44.21,-22 53.95,-22 62.93,-22"/>
<polygon fill="black" stroke="black" points="62.97,-25.5 72.97,-22 62.97,-18.5 62.97,-25.5"/>
</g>
</g>
</svg>
