<?xml version="1.0" encoding="UTF-8" standalone="no"?>
<!DOCTYPE svg PUBLIC "-//W3C//DTD SVG 1.1//EN"
 "http://www.w3.org/Graphics/SVG/1.1/DTD/svg11.dtd">
<!-- Generated by graphviz version 2.43.0 (0)
 -->
<!-- Title: MONA_DFA Pages: 1 -->
<svg width="287pt" height="150pt"
 viewBox="0.00 0.00 287.00 150.00" xmlns="http://www.w3.org/2000/svg" xmlns:xlink="http://www.w3.org/1999/xlink">
<g id="graph0" class="graph" transform="scale(1 1) rotate(0) translate(4 146)">
<title>MONA_DFA</title>
<polygon fill="white" stroke="transparent" points="-4,4 -4,-146 283,-146 283,4 -4,4"/>
<!-- 1 -->
<g id="node1" class="node">
<title>1</title>
<ellipse fill="none" stroke="black" cx="176" cy="-72" rx="18" ry="18"/>
<ellipse fill="none" stroke="black" cx="176" cy="-72" rx="22" ry="22"/>
<text text-anchor="middle" x="176" y="-68.3" font-family="Times,serif" font-size="14.00">1</text>
</g>
<!-- 1&#45;&gt;1 -->
<g id="edge5" class="edge">
<title>1&#45;&gt;1</title>
<path fill="none" stroke="black" d="M167.99,-92.58C166.89,-102.84 169.55,-112 176,-112 180.13,-112 182.71,-108.24 183.74,-102.84"/>
<polygon fill="black" stroke="black" points="187.24,-102.67 184.01,-92.58 180.25,-102.49 187.24,-102.67"/>
<text text-anchor="middle" x="176" y="-130.8" font-family="Courier,monospace" font-size="14.00">0</text>
<text text-anchor="middle" x="176" y="-115.8" font-family="Courier,monospace" font-size="14.00">X</text>
</g>
<!-- 2 -->
<g id="node3" class="node">
<title>2</title>
<ellipse fill="none" stroke="black" cx="261" cy="-18" rx="18" ry="18"/>
<text text-anchor="middle" x="261" y="-14.3" font-family="Times,serif" font-size="14.00">2</text>
</g>
<!-- 1&#45;&gt;2 -->
<g id="edge6" class="edge">
<title>1&#45;&gt;2</title>
<path fill="none" stroke="black" d="M195.01,-60.28C207.33,-52.27 223.76,-41.57 237.03,-32.95"/>
<polygon fill="black" stroke="black" points="239.14,-35.75 245.61,-27.36 235.32,-29.88 239.14,-35.75"/>
<text text-anchor="middle" x="220.5" y="-64.8" font-family="Courier,monospace" font-size="14.00">1</text>
<text text-anchor="middle" x="220.5" y="-49.8" font-family="Courier,monospace" font-size="14.00">X</text>
</g>
<!-- 0 -->
<g id="node2" class="node">
<title>0</title>
<ellipse fill="none" stroke="black" cx="91" cy="-18" rx="18" ry="18"/>
<text text-anchor="middle" x="91" y="-14.3" font-family="Times,serif" font-size="14.00">0</text>
</g>
<!-- 0&#45;&gt;1 -->
<g id="edge3" class="edge">
<title>0&#45;&gt;1</title>
<path fill="none" stroke="black" d="M106.46,-27.41C118.04,-34.94 134.6,-45.72 148.54,-54.79"/>
<polygon fill="black" stroke="black" points="146.95,-57.93 157.25,-60.45 150.77,-52.06 146.95,-57.93"/>
<text text-anchor="middle" x="131.5" y="-64.8" font-family="Courier,monospace" font-size="14.00">0</text>
<text text-anchor="middle" x="131.5" y="-49.8" font-family="Courier,monospace" font-size="14.00">1</text>
</g>
<!-- 0&#45;&gt;0 -->
<g id="edge2" class="edge">
<title>0&#45;&gt;0</title>
<path fill="none" stroke="black" d="M84.62,-35.04C83.32,-44.86 85.45,-54 91,-54 94.47,-54 96.6,-50.43 97.4,-45.35"/>
<polygon fill="black" stroke="black" points="100.9,-45.03 97.38,-35.04 93.9,-45.04 100.9,-45.03"/>
<text text-anchor="middle" x="91" y="-72.8" font-family="Courier,monospace" font-size="14.00">0</text>
<text text-anchor="middle" x="91" y="-57.8" font-family="Courier,monospace" font-size="14.00">0</text>
</g>
<!-- 0&#45;&gt;2 -->
<g id="edge4" class="edge">
<title>0&#45;&gt;2</title>
<path fill="none" stroke="black" d="M109.06,-15.55C121.49,-13.89 138.75,-11.86 154,-11 173.52,-9.9 178.48,-9.9 198,-11 209.44,-11.64 222,-12.95 232.82,-14.26"/>
<polygon fill="black" stroke="black" points="232.58,-17.76 242.94,-15.55 233.46,-10.82 232.58,-17.76"/>
<text text-anchor="middle" x="176" y="-29.8" font-family="Courier,monospace" font-size="14.00">1</text>
<text text-anchor="middle" x="176" y="-14.8" font-family="Courier,monospace" font-size="14.00">X</text>
</g>
<!-- 2&#45;&gt;2 -->
<g id="edge7" class="edge">
<title>2&#45;&gt;2</title>
<path fill="none" stroke="black" d="M253.97,-34.66C252.41,-44.62 254.75,-54 261,-54 265,-54 267.4,-50.15 268.2,-44.77"/>
<polygon fill="black" stroke="black" points="271.7,-44.6 268.03,-34.66 264.7,-44.72 271.7,-44.6"/>
<text text-anchor="middle" x="261" y="-72.8" font-family="Courier,monospace" font-size="14.00">X</text>
<text text-anchor="middle" x="261" y="-57.8" font-family="Courier,monospace" font-size="14.00">X</text>
</g>
<!-- init -->
<g id="node4" class="node">
<title>init</title>
</g>
<!-- init&#45;&gt;0 -->
<g id="edge1" class="edge">
<title>init&#45;&gt;0</title>
<path fill="none" stroke="black" d="M36.19,-18C44.21,-18 53.95,-18 62.93,-18"/>
<polygon fill="black" stroke="black" points="62.97,-21.5 72.97,-18 62.97,-14.5 62.97,-21.5"/>
</g>
</g>
</svg>
