<?xml version="1.0" encoding="UTF-8" standalone="no"?>
<!DOCTYPE svg PUBLIC "-//W3C//DTD SVG 1.1//EN"
 "http://www.w3.org/Graphics/SVG/1.1/DTD/svg11.dtd">
<!-- Generated by graphviz version 2.43.0 (0)
 -->
<!-- Title: DD Pages: 1 -->
<svg width="336pt" height="332pt"
 viewBox="0.00 0.00 335.50 332.00" xmlns="http://www.w3.org/2000/svg" xmlns:xlink="http://www.w3.org/1999/xlink">
<g id="graph0" class="graph" transform="scale(1 1) rotate(0) translate(4 328)">
<title>DD</title>
<polygon fill="white" stroke="transparent" points="-4,4 -4,-328 331.5,-328 331.5,4 -4,4"/>
<!-- CONST NODES -->
<!--  A0:Z0  -->
<g id="node2" class="node">
<title> A0:Z0 </title>
<text text-anchor="middle" x="64" y="-230.3" font-family="Times,serif" font-size="14.00"> A0:Z0 </text>
</g>
<!--  request  -->
<g id="node3" class="node">
<title> request </title>
<text text-anchor="middle" x="64" y="-158.3" font-family="Times,serif" font-size="14.00"> request </text>
</g>
<!--  A0:Z0 &#45;&gt; request  -->
<!--  response  -->
<g id="node4" class="node">
<title> response </title>
<text text-anchor="middle" x="64" y="-86.3" font-family="Times,serif" font-size="14.00"> response </text>
</g>
<!--  request &#45;&gt; response  -->
<!--  response &#45;&gt;CONST NODES -->
<!--  &#160;A0:Z0 &#160; -->
<g id="node5" class="node">
<title> &#160;A0:Z0 &#160;</title>
<polygon fill="none" stroke="black" points="238.5,-324 161.5,-324 161.5,-288 238.5,-288 238.5,-324"/>
<text text-anchor="middle" x="200" y="-302.3" font-family="Times,serif" font-size="14.00"> &#160;A0:Z0 &#160;</text>
</g>
<!--  &#160;Final &#160; -->
<g id="node6" class="node">
<title> &#160;Final &#160;</title>
<polygon fill="none" stroke="black" points="327.5,-324 256.5,-324 256.5,-288 327.5,-288 327.5,-324"/>
<text text-anchor="middle" x="292" y="-302.3" font-family="Times,serif" font-size="14.00"> &#160;Final &#160;</text>
</g>
<!--  &#160;A0:Z0 &#160;&#45;&gt; &#160;Final &#160; -->
<!-- 0x69 -->
<g id="node8" class="node">
<title>0x69</title>
<ellipse fill="none" stroke="black" cx="200" cy="-234" rx="33.6" ry="18"/>
<text text-anchor="middle" x="200" y="-230.3" font-family="Times,serif" font-size="14.00">0x69</text>
</g>
<!--  &#160;A0:Z0 &#160;&#45;&gt;0x69 -->
<g id="edge5" class="edge">
<title> &#160;A0:Z0 &#160;&#45;&gt;0x69</title>
<path fill="none" stroke="black" d="M200,-287.7C200,-276.85 200,-262.92 200,-252.1"/>
</g>
<!-- 0x6b -->
<g id="node7" class="node">
<title>0x6b</title>
<ellipse fill="none" stroke="black" cx="292" cy="-234" rx="33.6" ry="18"/>
<text text-anchor="middle" x="292" y="-230.3" font-family="Times,serif" font-size="14.00">0x6b</text>
</g>
<!--  &#160;Final &#160;&#45;&gt;0x6b -->
<g id="edge6" class="edge">
<title> &#160;Final &#160;&#45;&gt;0x6b</title>
<path fill="none" stroke="black" d="M292,-287.7C292,-276.85 292,-262.92 292,-252.1"/>
</g>
<!-- 0x58 -->
<g id="node11" class="node">
<title>0x58</title>
<polygon fill="none" stroke="black" points="242,-36 188,-36 188,0 242,0 242,-36"/>
<text text-anchor="middle" x="215" y="-14.3" font-family="Times,serif" font-size="14.00">0</text>
</g>
<!-- 0x6b&#45;&gt;0x58 -->
<g id="edge7" class="edge">
<title>0x6b&#45;&gt;0x58</title>
<path fill="none" stroke="black" d="M290.43,-215.78C287.15,-185.47 277.9,-121.13 255,-72 248.96,-59.04 239.39,-46.2 231.12,-36.41"/>
</g>
<!-- 0x57 -->
<g id="node12" class="node">
<title>0x57</title>
<polygon fill="none" stroke="black" points="326,-36 272,-36 272,0 326,0 326,-36"/>
<text text-anchor="middle" x="299" y="-14.3" font-family="Times,serif" font-size="14.00">1</text>
</g>
<!-- 0x6b&#45;&gt;0x57 -->
<g id="edge8" class="edge">
<title>0x6b&#45;&gt;0x57</title>
<path fill="none" stroke="black" stroke-dasharray="5,2" d="M292.56,-215.85C293.87,-175.78 297.12,-76.38 298.44,-36.23"/>
</g>
<!-- 0x60 -->
<g id="node9" class="node">
<title>0x60</title>
<ellipse fill="none" stroke="black" cx="156" cy="-162" rx="33.6" ry="18"/>
<text text-anchor="middle" x="156" y="-158.3" font-family="Times,serif" font-size="14.00">0x60</text>
</g>
<!-- 0x69&#45;&gt;0x60 -->
<g id="edge10" class="edge">
<title>0x69&#45;&gt;0x60</title>
<path fill="none" stroke="black" stroke-dasharray="5,2" d="M189.79,-216.76C182.79,-205.62 173.52,-190.87 166.46,-179.63"/>
</g>
<!-- 0x5f -->
<g id="node10" class="node">
<title>0x5f</title>
<ellipse fill="none" stroke="black" cx="215" cy="-90" rx="31.4" ry="18"/>
<text text-anchor="middle" x="215" y="-86.3" font-family="Times,serif" font-size="14.00">0x5f</text>
</g>
<!-- 0x69&#45;&gt;0x5f -->
<g id="edge9" class="edge">
<title>0x69&#45;&gt;0x5f</title>
<path fill="none" stroke="black" d="M201.81,-215.87C204.69,-188.58 210.3,-135.52 213.18,-108.19"/>
</g>
<!-- 0x60&#45;&gt;0x5f -->
<g id="edge11" class="edge">
<title>0x60&#45;&gt;0x5f</title>
<path fill="none" stroke="black" d="M169.39,-145.12C179.04,-133.66 192.02,-118.26 201.66,-106.82"/>
</g>
<!-- 0x60&#45;&gt;0x58 -->
<g id="edge12" class="edge">
<title>0x60&#45;&gt;0x58</title>
<path fill="none" stroke="black" stroke-dasharray="5,2" d="M157.43,-143.91C159.47,-125.47 164.24,-95.57 175,-72 180.94,-59 190.51,-46.16 198.8,-36.37"/>
</g>
<!-- 0x5f&#45;&gt;0x58 -->
<g id="edge13" class="edge">
<title>0x5f&#45;&gt;0x58</title>
<path fill="none" stroke="black" d="M215,-71.7C215,-60.85 215,-46.92 215,-36.1"/>
</g>
<!-- 0x5f&#45;&gt;0x57 -->
<g id="edge14" class="edge">
<title>0x5f&#45;&gt;0x57</title>
<path fill="none" stroke="black" stroke-dasharray="5,2" d="M232,-74.83C245.42,-63.65 264.2,-48 278.46,-36.11"/>
</g>
</g>
</svg>
