<?xml version="1.0" encoding="UTF-8" standalone="no"?>
<!DOCTYPE svg PUBLIC "-//W3C//DTD SVG 1.1//EN"
 "http://www.w3.org/Graphics/SVG/1.1/DTD/svg11.dtd">
<!-- Generated by graphviz version 2.43.0 (0)
 -->
<!-- Title: DD Pages: 1 -->
<svg width="280pt" height="260pt"
 viewBox="0.00 0.00 280.00 260.00" xmlns="http://www.w3.org/2000/svg" xmlns:xlink="http://www.w3.org/1999/xlink">
<g id="graph0" class="graph" transform="scale(1 1) rotate(0) translate(4 256)">
<title>DD</title>
<polygon fill="white" stroke="transparent" points="-4,4 -4,-256 276,-256 276,4 -4,4"/>
<!-- CONST NODES -->
<!--  request  -->
<g id="node2" class="node">
<title> request </title>
<text text-anchor="middle" x="64" y="-158.3" font-family="Times,serif" font-size="14.00"> request </text>
</g>
<!--  response  -->
<g id="node3" class="node">
<title> response </title>
<text text-anchor="middle" x="64" y="-86.3" font-family="Times,serif" font-size="14.00"> response </text>
</g>
<!--  request &#45;&gt; response  -->
<!--  response &#45;&gt;CONST NODES -->
<!--  &#160;S0 &#160; -->
<g id="node4" class="node">
<title> &#160;S0 &#160;</title>
<polygon fill="none" stroke="black" points="197,-252 143,-252 143,-216 197,-216 197,-252"/>
<text text-anchor="middle" x="170" y="-230.3" font-family="Times,serif" font-size="14.00"> &#160;S0 &#160;</text>
</g>
<!--  &#160;S1 &#160; -->
<g id="node5" class="node">
<title> &#160;S1 &#160;</title>
<polygon fill="none" stroke="black" points="269,-252 215,-252 215,-216 269,-216 269,-252"/>
<text text-anchor="middle" x="242" y="-230.3" font-family="Times,serif" font-size="14.00"> &#160;S1 &#160;</text>
</g>
<!--  &#160;S0 &#160;&#45;&gt; &#160;S1 &#160; -->
<!-- 0x60 -->
<g id="node6" class="node">
<title>0x60</title>
<ellipse fill="none" stroke="black" cx="173" cy="-162" rx="33.6" ry="18"/>
<text text-anchor="middle" x="173" y="-158.3" font-family="Times,serif" font-size="14.00">0x60</text>
</g>
<!--  &#160;S0 &#160;&#45;&gt;0x60 -->
<g id="edge4" class="edge">
<title> &#160;S0 &#160;&#45;&gt;0x60</title>
<path fill="none" stroke="black" d="M170.74,-215.7C171.21,-204.85 171.8,-190.92 172.27,-180.1"/>
</g>
<!-- 0x5f -->
<g id="node7" class="node">
<title>0x5f</title>
<ellipse fill="none" stroke="black" cx="236" cy="-90" rx="31.4" ry="18"/>
<text text-anchor="middle" x="236" y="-86.3" font-family="Times,serif" font-size="14.00">0x5f</text>
</g>
<!--  &#160;S1 &#160;&#45;&gt;0x5f -->
<g id="edge5" class="edge">
<title> &#160;S1 &#160;&#45;&gt;0x5f</title>
<path fill="none" stroke="black" d="M241.28,-215.87C240.12,-188.58 237.88,-135.52 236.73,-108.19"/>
</g>
<!-- 0x60&#45;&gt;0x5f -->
<g id="edge6" class="edge">
<title>0x60&#45;&gt;0x5f</title>
<path fill="none" stroke="black" d="M186.98,-145.46C197.42,-133.86 211.63,-118.08 222.06,-106.49"/>
</g>
<!-- 0x58 -->
<g id="node8" class="node">
<title>0x58</title>
<polygon fill="none" stroke="black" points="200,-36 146,-36 146,0 200,0 200,-36"/>
<text text-anchor="middle" x="173" y="-14.3" font-family="Times,serif" font-size="14.00">0</text>
</g>
<!-- 0x60&#45;&gt;0x58 -->
<g id="edge7" class="edge">
<title>0x60&#45;&gt;0x58</title>
<path fill="none" stroke="black" stroke-dasharray="5,2" d="M173,-143.87C173,-116.58 173,-63.52 173,-36.19"/>
</g>
<!-- 0x5f&#45;&gt;0x58 -->
<g id="edge8" class="edge">
<title>0x5f&#45;&gt;0x58</title>
<path fill="none" stroke="black" d="M222.33,-73.81C212.34,-62.71 198.79,-47.65 188.41,-36.13"/>
</g>
<!-- 0x57 -->
<g id="node9" class="node">
<title>0x57</title>
<polygon fill="none" stroke="black" points="272,-36 218,-36 218,0 272,0 272,-36"/>
<text text-anchor="middle" x="245" y="-14.3" font-family="Times,serif" font-size="14.00">1</text>
</g>
<!-- 0x5f&#45;&gt;0x57 -->
<g id="edge9" class="edge">
<title>0x5f&#45;&gt;0x57</title>
<path fill="none" stroke="black" stroke-dasharray="5,2" d="M238.22,-71.7C239.62,-60.85 241.41,-46.92 242.8,-36.1"/>
</g>
</g>
</svg>
