<?xml version="1.0" encoding="UTF-8" standalone="no"?>
<!DOCTYPE svg PUBLIC "-//W3C//DTD SVG 1.1//EN"
 "http://www.w3.org/Graphics/SVG/1.1/DTD/svg11.dtd">
<!-- Generated by graphviz version 2.43.0 (0)
 -->
<!-- Title: MONA_DFA Pages: 1 -->
<svg width="206pt" height="108pt"
 viewBox="0.00 0.00 206.00 108.21" xmlns="http://www.w3.org/2000/svg" xmlns:xlink="http://www.w3.org/1999/xlink">
<g id="graph0" class="graph" transform="scale(1 1) rotate(0) translate(4 104.21)">
<title>MONA_DFA</title>
<polygon fill="white" stroke="transparent" points="-4,4 -4,-104.21 202,-104.21 202,4 -4,4"/>
<!-- 0 -->
<g id="node1" class="node">
<title>0</title>
<ellipse fill="none" stroke="black" cx="95" cy="-30.21" rx="18" ry="18"/>
<ellipse fill="none" stroke="black" cx="95" cy="-30.21" rx="22" ry="22"/>
<text text-anchor="middle" x="95" y="-26.51" font-family="Times,serif" font-size="14.00">0</text>
</g>
<!-- 0&#45;&gt;0 -->
<g id="edge2" class="edge">
<title>0&#45;&gt;0</title>
<path fill="none" stroke="black" d="M87.68,-51.2C86.78,-61.29 89.22,-70.21 95,-70.21 98.7,-70.21 101.04,-66.55 102,-61.26"/>
<polygon fill="black" stroke="black" points="105.5,-61.3 102.32,-51.2 98.5,-61.08 105.5,-61.3"/>
<text text-anchor="middle" x="95" y="-89.01" font-family="Courier,monospace" font-size="14.00">0 1</text>
<text text-anchor="middle" x="95" y="-74.01" font-family="Courier,monospace" font-size="14.00">X,1</text>
</g>
<!-- 1 -->
<g id="node2" class="node">
<title>1</title>
<ellipse fill="none" stroke="black" cx="180" cy="-30.21" rx="18" ry="18"/>
<text text-anchor="middle" x="180" y="-26.51" font-family="Times,serif" font-size="14.00">1</text>
</g>
<!-- 0&#45;&gt;1 -->
<g id="edge3" class="edge">
<title>0&#45;&gt;1</title>
<path fill="none" stroke="black" d="M117,-33.99C125.39,-35.09 135.14,-35.84 144,-35.21 146.57,-35.02 149.24,-34.77 151.91,-34.46"/>
<polygon fill="black" stroke="black" points="152.51,-37.91 161.96,-33.13 151.59,-30.97 152.51,-37.91"/>
<text text-anchor="middle" x="139.5" y="-54.01" font-family="Courier,monospace" font-size="14.00">1</text>
<text text-anchor="middle" x="139.5" y="-39.01" font-family="Courier,monospace" font-size="14.00">0</text>
</g>
<!-- 1&#45;&gt;0 -->
<g id="edge4" class="edge">
<title>1&#45;&gt;0</title>
<path fill="none" stroke="black" d="M168.29,-16.03C159.87,-6.76 147.51,2.93 135,-1.21 129.59,-3 124.33,-5.86 119.5,-9.1"/>
<polygon fill="black" stroke="black" points="117.26,-6.41 111.36,-15.21 121.46,-12.01 117.26,-6.41"/>
<text text-anchor="middle" x="139.5" y="-20.01" font-family="Courier,monospace" font-size="14.00">X</text>
<text text-anchor="middle" x="139.5" y="-5.01" font-family="Courier,monospace" font-size="14.00">1</text>
</g>
<!-- 1&#45;&gt;1 -->
<g id="edge5" class="edge">
<title>1&#45;&gt;1</title>
<path fill="none" stroke="black" d="M172.97,-46.87C171.41,-56.83 173.75,-66.21 180,-66.21 184,-66.21 186.4,-62.36 187.2,-56.97"/>
<polygon fill="black" stroke="black" points="190.7,-56.81 187.03,-46.87 183.7,-56.93 190.7,-56.81"/>
<text text-anchor="middle" x="180" y="-85.01" font-family="Courier,monospace" font-size="14.00">X</text>
<text text-anchor="middle" x="180" y="-70.01" font-family="Courier,monospace" font-size="14.00">0</text>
</g>
<!-- init -->
<g id="node3" class="node">
<title>init</title>
</g>
<!-- init&#45;&gt;0 -->
<g id="edge1" class="edge">
<title>init&#45;&gt;0</title>
<path fill="none" stroke="black" d="M36.02,-30.21C43.85,-30.21 53.39,-30.21 62.46,-30.21"/>
<polygon fill="black" stroke="black" points="62.76,-33.71 72.76,-30.21 62.76,-26.71 62.76,-33.71"/>
</g>
</g>
</svg>
